<svg width="200" height="200" viewBox="0 0 200 200" fill="none" xmlns="http://www.w3.org/2000/svg">
<path d="M51.7334 72.3333L36.1334 99.6667L51.7334 127L67.3334 154.333H99.4667H131.6L147.2 127L162.933 99.6667L147.2 72.3333L131.6 45H99.4667H67.3334L51.7334 72.3333ZM125.733 55H73.3333L70.8333 49H129.6L125.733 55ZM132.133 81.2667L142.667 99.6667L132.133 117.933L121.6 136.333H77.3333L67.0667 118.333L56.4 99.5333L67.0667 80.8667L77.8333 63H121.6L132.133 81.2667ZM129.6 150.333H70.8333L73.8333 143.667H125.333L129.6 150.333Z" fill="white"/>
<path d="M0 99.6667L28.8 147.667L37.3333 129.667L20.1333 99.5334L37.3333 66.6L27.8 50.6667L0 99.6667Z" fill="white"/>
<path d="M160.933 68.3334L178.933 99.6667L160.933 130.867L171.467 147.667L199.067 99.6667L171.467 51.6667L160.933 68.3334Z" fill="white"/>
</svg>
