<?xml version="1.0" encoding="UTF-8" standalone="no"?>
<svg
   width="199.067"
   height="109.333"
   viewBox="0 0 199.067 109.333"
   fill="none"
   version="1.1"
   id="svg8"
   sodipodi:docname="spice-icon-dark-shrinked.svg"
   inkscape:version="1.1.2 (0a00cf5339, 2022-02-04)"
   xmlns:inkscape="http://www.inkscape.org/namespaces/inkscape"
   xmlns:sodipodi="http://sodipodi.sourceforge.net/DTD/sodipodi-0.dtd"
   xmlns="http://www.w3.org/2000/svg"
   xmlns:svg="http://www.w3.org/2000/svg">
  <defs
     id="defs12" />
  <sodipodi:namedview
     id="namedview10"
     pagecolor="#505050"
     bordercolor="#ffffff"
     borderopacity="1"
     inkscape:pageshadow="0"
     inkscape:pageopacity="0"
     inkscape:pagecheckerboard="1"
     showgrid="false"
     inkscape:zoom="4.22"
     inkscape:cx="100"
     inkscape:cy="55.094787"
     inkscape:window-width="1920"
     inkscape:window-height="1016"
     inkscape:window-x="0"
     inkscape:window-y="27"
     inkscape:window-maximized="1"
     inkscape:current-layer="svg8"
     fit-margin-top="0"
     fit-margin-left="0"
     fit-margin-right="0"
     fit-margin-bottom="0" />
  <g
     id="g832"
     transform="translate(0,-45)">
    <path
       d="m 51.7334,72.3333 -15.6,27.3333 15.6,27.3334 15.6,27.333 H 99.4667 131.6 L 147.2,127 162.933,99.6666 147.2,72.3333 131.6,45 H 99.4667 67.3334 Z M 125.733,55 H 73.3333 l -2.5,-6 H 129.6 Z m 6.4,26.2666 10.534,18.4 -10.534,18.2664 -10.533,18.4 H 77.3333 l -10.2666,-18 L 56.4,99.5333 67.0667,80.8666 77.8333,63 H 121.6 Z M 129.6,150.333 H 70.8333 l 3,-6.666 h 51.4997 z"
       fill="#222222"
       id="path2" />
    <path
       d="m 0,99.6667 28.8,48.0003 8.5333,-18 -17.2,-30.1336 L 37.3333,66.6 27.8,50.6667 Z"
       fill="#222222"
       id="path4" />
    <path
       d="m 160.933,68.3334 18,31.3333 -18,31.2003 10.534,16.8 27.6,-48.0003 -27.6,-48 z"
       fill="#222222"
       id="path6" />
  </g>
</svg>
