<?xml version="1.0" encoding="UTF-8" standalone="no"?>
<svg
   width="475"
   height="140"
   viewBox="0 0 475 140"
   fill="none"
   version="1.1"
   id="svg10"
   sodipodi:docname="spice-logo.svg"
   inkscape:version="1.1.2 (0a00cf5339, 2022-02-04)"
   xmlns:inkscape="http://www.inkscape.org/namespaces/inkscape"
   xmlns:sodipodi="http://sodipodi.sourceforge.net/DTD/sodipodi-0.dtd"
   xmlns="http://www.w3.org/2000/svg"
   xmlns:svg="http://www.w3.org/2000/svg">
  <defs
     id="defs14" />
  <sodipodi:namedview
     id="namedview12"
     pagecolor="#505050"
     bordercolor="#ffffff"
     borderopacity="1"
     inkscape:pageshadow="0"
     inkscape:pageopacity="0"
     inkscape:pagecheckerboard="1"
     showgrid="false"
     showguides="true"
     inkscape:guide-bbox="true"
     inkscape:zoom="0.46892344"
     inkscape:cx="535.26861"
     inkscape:cy="-235.64614"
     inkscape:window-width="1920"
     inkscape:window-height="1016"
     inkscape:window-x="0"
     inkscape:window-y="27"
     inkscape:window-maximized="1"
     inkscape:current-layer="svg10">
    <sodipodi:guide
       position="347.481,101.9415"
       orientation="0,-1"
       id="guide1912" />
    <sodipodi:guide
       position="347.481,37"
       orientation="0,-1"
       id="guide1914" />
  </sodipodi:namedview>
  <path
     id="path1918"
     style="color:#000000;fill:#ffffff;stroke-width:2.77818;-inkscape-stroke:none"
     d="M 67.333984 15 L 51.734375 42.333984 L 36.132812 69.666016 L 51.734375 97 L 67.333984 124.33203 L 99.466797 124.33203 L 131.59961 124.33203 L 147.19922 97 L 162.93359 69.666016 L 147.19922 42.333984 L 131.59961 15 L 99.466797 15 L 67.333984 15 z M 70.833984 19 L 129.59961 19 L 125.73242 25 L 73.333984 25 L 70.833984 19 z M 27.800781 20.666016 L 0 69.666016 L 28.800781 117.66797 L 37.333984 99.666016 L 20.132812 69.533203 L 37.333984 36.599609 L 27.800781 20.666016 z M 171.4668 21.666016 L 160.93359 38.333984 L 178.93359 69.666016 L 160.93359 100.86719 L 171.4668 117.66797 L 199.06641 69.666016 L 171.4668 21.666016 z M 77.833984 33 L 121.59961 33 L 132.13281 51.267578 L 142.66797 69.666016 L 132.13281 87.933594 L 121.59961 106.33203 L 77.333984 106.33203 L 67.066406 88.333984 L 56.400391 69.533203 L 67.066406 50.867188 L 77.833984 33 z M 254.30664 36.849609 C 254.12936 36.849609 253.96457 36.871733 253.78906 36.875 C 253.55387 36.883764 253.32034 36.895422 253.08789 36.910156 C 249.80064 37.056264 246.81352 37.757657 244.16406 39.082031 C 241.24906 40.570731 238.98505 42.585806 237.37305 45.128906 C 236.10837 47.151978 235.38959 49.305715 235.15625 51.576172 C 235.04863 52.318714 234.99219 53.072137 234.99219 53.835938 C 234.99219 57.841369 235.87276 61.194057 237.75781 63.751953 L 237.77148 63.769531 L 237.78516 63.785156 C 239.63634 66.148033 241.91204 67.939605 244.55859 69.101562 C 247.09758 70.216206 250.39182 71.301584 254.47656 72.382812 L 254.47852 72.382812 L 254.48047 72.382812 C 258.30307 73.382699 261.31364 74.350728 263.47266 75.259766 L 263.47852 75.263672 L 263.48633 75.265625 C 265.58433 76.126342 267.29867 77.443869 268.70312 79.28125 L 268.70898 79.289062 L 268.71484 79.296875 C 270.01932 80.952179 270.73633 83.283125 270.73633 86.458984 C 270.73633 88.831595 270.13302 90.917135 268.9043 92.839844 L 268.9043 92.841797 C 267.68242 94.755089 265.93401 96.303114 263.56836 97.515625 C 261.23002 98.654226 258.51613 99.242187 255.36914 99.242188 C 251.37584 99.242188 248.20258 98.524054 245.79492 97.1875 L 245.79297 97.1875 C 243.34832 95.796159 241.62185 94.176924 240.52148 92.345703 C 239.41347 90.402723 238.73931 88.500216 238.4707 86.619141 L 238.30078 85.425781 L 233.76562 85.425781 L 233.93164 86.964844 C 233.95315 87.162777 233.98573 87.358305 234.01367 87.554688 L 233.93164 87.554688 C 234.24164 90.407887 235.2342 93.075641 236.9082 95.556641 C 238.5832 97.975741 240.93952 99.929669 243.97852 101.41797 C 247.08052 102.90697 250.70923 103.65039 254.86523 103.65039 C 255.05462 103.65039 255.2253 103.62822 255.41211 103.625 C 259.54878 103.61982 263.15949 102.84344 266.18359 101.23438 L 266.19531 101.22852 L 266.20508 101.22266 C 269.18148 99.576868 271.47406 97.399054 272.97656 94.724609 C 274.50767 92.10497 275.30078 89.321349 275.30078 86.458984 C 275.30078 82.513293 274.41742 79.237546 272.51562 76.789062 C 270.7213 74.421252 268.46432 72.651802 265.8125 71.548828 C 263.32745 70.432394 260.07057 69.350413 255.99414 68.271484 L 255.99219 68.271484 L 255.99023 68.271484 C 252.17287 67.273122 249.14134 66.304375 246.91602 65.392578 C 244.81543 64.474984 243.05981 63.123657 241.59375 61.285156 C 240.27425 59.501126 239.55859 57.068852 239.55859 53.837891 C 239.55859 51.291662 240.21511 49.1785 241.5293 47.337891 C 242.93394 45.395677 244.74033 43.928991 247.03125 42.892578 L 247.03906 42.888672 L 247.04492 42.884766 C 249.40949 41.784934 251.98836 41.232422 254.83789 41.232422 C 258.1161 41.232422 260.82781 41.824612 263.02734 42.951172 L 263.04102 42.958984 L 263.05273 42.964844 C 265.33098 44.076286 267.00599 45.42493 268.15625 46.994141 C 269.37908 48.661133 270.14621 50.249091 270.50977 51.755859 L 270.76953 52.822266 L 275.36523 52.822266 L 275.00391 51.136719 C 274.48295 48.726393 273.36805 46.455443 271.7207 44.357422 C 270.08477 42.138703 267.81436 40.336695 264.98438 38.953125 C 262.08438 37.535239 258.6857 36.851563 254.83789 36.851562 L 254.83203 36.849609 C 254.71735 36.849609 254.60625 36.856054 254.49219 36.857422 C 254.42845 36.857043 254.37067 36.849609 254.30664 36.849609 z M 390.12305 37.220703 C 383.92105 37.220703 378.3072 38.648753 373.2832 41.501953 C 368.3212 44.293053 364.3818 48.230206 361.4668 53.316406 C 358.6138 58.340506 357.1875 64.046847 357.1875 70.435547 C 357.1875 76.824247 358.6138 82.530488 361.4668 87.554688 C 364.3818 92.578788 368.3212 96.517894 373.2832 99.371094 C 378.3072 102.16259 383.92105 103.55859 390.12305 103.55859 C 397.44205 103.55859 403.79931 101.72746 409.19531 98.068359 C 414.65431 94.346759 418.46963 89.16805 420.64062 82.53125 L 405.66016 82.53125 C 404.17116 85.63255 402.06298 87.988862 399.33398 89.601562 C 396.66698 91.152263 393.5653 91.927734 390.0293 91.927734 C 386.2453 91.927734 382.86567 91.058966 379.88867 89.322266 C 376.97367 87.523466 374.67891 85.012509 373.00391 81.787109 C 371.39091 78.499709 370.58594 74.715347 370.58594 70.435547 C 370.58594 66.093747 371.39091 62.311338 373.00391 59.085938 C 374.67891 55.860537 376.97367 53.379278 379.88867 51.642578 C 382.86567 49.843778 386.2453 48.943359 390.0293 48.943359 C 393.5653 48.943359 396.66698 49.718831 399.33398 51.269531 C 402.06298 52.820231 404.17116 55.146647 405.66016 58.248047 L 420.64062 58.248047 C 418.46963 51.673247 414.65431 46.524334 409.19531 42.802734 C 403.73731 39.081134 397.38005 37.220703 390.12305 37.220703 z M 284.5625 37.472656 L 284.5625 103 L 289.12305 103 L 289.12305 74.744141 L 301.81641 74.744141 C 308.6124 74.744141 313.95722 73.279104 317.68359 70.140625 C 317.95756 69.909958 318.2191 69.668154 318.47266 69.419922 C 318.63934 69.291387 318.82063 69.175638 318.98047 69.041016 C 322.51647 66.063816 324.28516 61.567381 324.28516 55.550781 C 324.28516 49.844381 322.57897 45.409394 319.16797 42.246094 C 315.81797 39.082694 310.54656 37.5 303.35156 37.5 L 302.76758 37.5 C 302.44795 37.493387 302.14308 37.472656 301.81641 37.472656 L 284.5625 37.472656 z M 431.76562 37.964844 L 431.76562 103 L 469.44531 103 L 469.44531 92.392578 L 444.79102 92.392578 L 444.79102 75.181641 L 466.6543 75.181641 L 466.6543 64.853516 L 444.79102 64.853516 L 444.79102 48.572266 L 469.44531 48.572266 L 469.44531 37.964844 L 431.76562 37.964844 z M 334.45508 38.058594 L 334.45508 103 L 347.48047 103 L 347.48047 38.058594 L 334.45508 38.058594 z M 289.12305 42.035156 L 301.81641 42.035156 C 308.10649 42.035156 312.40723 43.32928 314.87305 45.589844 C 317.39272 47.899706 318.69922 51.30269 318.69922 56.154297 C 318.69922 60.750081 317.38307 64.061508 314.78125 66.451172 L 314.77734 66.457031 L 314.76953 66.458984 C 312.29687 68.777334 308.03911 70.095703 301.81445 70.095703 L 289.12109 70.095703 L 289.12305 42.035156 z M 73.833984 113.66797 L 125.33203 113.66797 L 129.59961 120.33203 L 70.833984 120.33203 L 73.833984 113.66797 z " />
</svg>
